<?xml version="1.0" standalone="no"?>
<!DOCTYPE svg PUBLIC "-//W3C//DTD SVG 20010904//EN"
 "http://www.w3.org/TR/2001/REC-SVG-20010904/DTD/svg10.dtd">
<svg version="1.0" xmlns="http://www.w3.org/2000/svg"
 width="512.000000pt" height="512.000000pt" viewBox="0 0 512.000000 512.000000"
 preserveAspectRatio="xMidYMid meet">
<metadata>
Created by potrace 1.11, written by Peter Selinger 2001-2013
</metadata>
<g transform="translate(0.000000,512.000000) scale(0.100000,-0.100000)"
fill="#000000" stroke="none">
<path d="M0 2560 l0 -2560 2560 0 2560 0 0 2560 0 2560 -2560 0 -2560 0 0
-2560z m1819 1050 c46 -11 122 -38 168 -60 293 -137 478 -400 550 -781 25
-136 24 -514 -1 -654 -83 -454 -344 -752 -739 -842 -50 -11 -119 -17 -227 -17
-182 0 -280 19 -417 84 -283 133 -464 376 -544 735 -30 131 -38 486 -15 643
46 310 171 557 361 711 140 114 283 173 490 205 70 10 292 -4 374 -24z m1988
-26 c426 -63 732 -348 844 -787 30 -115 39 -497 15 -633 -83 -479 -401 -800
-864 -869 -73 -11 -196 -15 -494 -15 l-398 0 0 1160 0 1160 396 0 c308 0 420
-3 501 -16z"/>
<path d="M1413 3219 c-150 -47 -265 -191 -313 -391 -48 -200 -48 -576 0 -763
76 -296 282 -455 540 -417 187 28 324 157 384 362 48 160 63 530 31 730 -43
260 -152 419 -333 479 -82 28 -222 28 -309 0z"/>
<path d="M3390 2433 l0 -776 168 6 c172 7 252 21 330 59 165 79 274 266 303
518 7 66 10 168 6 275 -9 276 -60 428 -182 550 -112 112 -216 145 -462 145
l-163 0 0 -777z"/>
</g>
</svg>
